<?xml version="1.0" encoding="UTF-8"?>
<svg version="1.1" xmlns="http://www.w3.org/2000/svg" width="192" height="192">
<path d="M0 0 C20.74214802 16.36295874 35.24768955 37.80942542 39.08984375 64.4375 C41.23429433 94.7507401 35.20654084 119.85377198 15.19946289 143.1015625 C-0.24141956 160.40289245 -22.66162943 173.00505778 -46.06445312 174.66064453 C-76.91659688 175.69954325 -101.60641605 169.19525544 -124.59375 147.79467773 C-141.14677537 131.75067991 -152.46398239 109.15993104 -153.24609375 85.93359375 C-153.63659358 55.62397823 -146.33434962 31.45758762 -124.84375 9.28515625 C-91.79128842 -23.47863754 -37.48370416 -27.42936077 0 0 Z " fill="#8248E5" transform="translate(152.91015625,17.5625)"/>
<path d="M0 0 C2.56127316 1.29480291 5.02371566 2.62284137 7.5 4.0625 C8.54426147 4.66106812 8.54426147 4.66106812 9.60961914 5.27172852 C11.74639388 6.50348196 13.87475876 7.74846356 16 9 C16.6585498 9.38768555 17.31709961 9.77537109 17.99560547 10.17480469 C28.78380299 16.56760599 28.78380299 16.56760599 30 19 C30.71080057 23.47495312 30.94885129 27.55225957 30 32 C27.08557686 35.00549886 23.9396338 36.64129165 20 38 C19.01 38 18.02 38 17 38 C16.98582031 37.10796875 16.97164062 36.2159375 16.95703125 35.296875 C16.90933594 34.12640625 16.86164063 32.9559375 16.8125 31.75 C16.76029297 30.00976562 16.76029297 30.00976562 16.70703125 28.234375 C16.27559523 24.85145113 16.27559523 24.85145113 13.65625 22.6875 C10.85193269 20.90593371 8.01160018 19.40074427 5 18 C5 17.34 5 16.68 5 16 C-3.4723431 13.81358888 -8.88843766 14.46539705 -16.4375 18.75 C-17.05294678 19.09732178 -17.66839355 19.44464355 -18.30249023 19.80249023 C-21.6897487 21.84106133 -23.56097695 23.33212362 -25 27 C-25.45338507 30.1354016 -25.4159038 33.27245654 -25.4375 36.4375 C-25.47037109 37.28376953 -25.50324219 38.13003906 -25.53710938 39.00195312 C-25.5738154 43.26318951 -25.49421653 45.34225594 -22.875 48.828125 C-19.83224619 51.12672707 -16.79669734 53.28969813 -13.5625 55.3125 C-12.47066406 56.00988281 -11.37882812 56.70726562 -10.25390625 57.42578125 C-6.55692669 59.214356 -5.03555747 59.73014976 -1 59 C2.38835156 57.39793973 5.51626693 55.42877927 8.6875 53.4375 C10.6389028 52.25236795 12.59211584 51.07021283 14.546875 49.890625 C15.58392578 49.26220703 16.62097656 48.63378906 17.68945312 47.98632812 C22.97009131 44.81794521 28.29369579 41.73048108 33.6546936 38.70022583 C34.83560384 38.02940801 36.01322853 37.35277037 37.18734741 36.6701355 C38.84457217 35.70725934 40.51392629 34.76535369 42.18359375 33.82421875 C43.61529907 33.00570435 43.61529907 33.00570435 45.07592773 32.1706543 C48.60859921 30.7563469 51.22426195 30.6800782 55 31 C58.38671875 32.71484375 58.38671875 32.71484375 61.6875 34.9375 C66.49761681 38.28553352 66.49761681 38.28553352 72 40 C72 40.66 72 41.32 72 42 C72.680625 42.061875 73.36125 42.12375 74.0625 42.1875 C77.99512049 43.27524609 80.92402281 45.34572936 84 48 C86.38819552 52.77639105 85.31224877 60.00191543 85.35009766 65.31201172 C85.36666578 67.01722859 85.39396747 68.72237578 85.43212891 70.42724609 C85.48689057 72.88675926 85.50876729 75.3446469 85.5234375 77.8046875 C85.54610687 78.5652243 85.56877625 79.32576111 85.59213257 80.10934448 C85.57737639 83.806055 85.40308802 85.57639539 82.81274414 88.29858398 C81.88453857 88.86005127 80.95633301 89.42151855 80 90 C79.11707275 90.56871826 78.23414551 91.13743652 77.32446289 91.72338867 C74.24276849 93.55457101 71.1561324 95.37654802 68.0625 97.1875 C66.4547168 98.14946289 66.4547168 98.14946289 64.81445312 99.13085938 C63.77353516 99.74123047 62.73261719 100.35160156 61.66015625 100.98046875 C60.71793213 101.53629639 59.77570801 102.09212402 58.80493164 102.66479492 C55.78796053 104.10093514 53.32428022 104.7249542 50 105 C46.921875 103.77734375 46.921875 103.77734375 43.75 101.9375 C42.61691406 101.29039062 41.48382813 100.64328125 40.31640625 99.9765625 C36.63392377 97.78182029 32.95218397 95.5874289 29.296875 93.34765625 C27.05327685 92.03125938 24.7813446 90.87620902 22.4375 89.75 C19 88 19 88 18 86 C17.35087284 81.22340391 17.14260434 76.75611935 18 72 C20.54737791 68.97662334 23.299234 67.34224674 27 66 C27.99 66 28.98 66 30 66 C30.01417969 66.80824219 30.02835937 67.61648437 30.04296875 68.44921875 C30.24238504 75.20330051 30.24238504 75.20330051 33.25 81.0625 C40.05857193 85.85944841 46.40846242 89.80435177 55 89 C57.9648632 87.81737808 60.64227358 86.26564238 63.375 84.625 C64.09816406 84.2125 64.82132812 83.8 65.56640625 83.375 C69.4102632 81.33216521 69.4102632 81.33216521 72 78 C72.29214653 74.54823835 72.27787308 71.08769201 72.3125 67.625 C72.34150391 66.6659375 72.37050781 65.706875 72.40039062 64.71875 C72.54139639 59.29356799 72.54139639 59.29356799 70.29296875 54.53125 C69.53628906 54.0259375 68.77960938 53.520625 68 53 C67.195625 52.46117187 66.39125 51.92234375 65.5625 51.3671875 C64.716875 50.87476563 63.87125 50.38234375 63 49.875 C62.154375 49.37742188 61.30875 48.87984375 60.4375 48.3671875 C59.633125 47.91601562 58.82875 47.46484375 58 47 C57.38125 46.59007812 56.7625 46.18015625 56.125 45.7578125 C52.80540725 44.57398714 50.39781029 45.21115799 47 46 C43.6134066 47.5684621 43.6134066 47.5684621 40.3125 49.625 C39.70946045 49.98255371 39.1064209 50.34010742 38.48510742 50.70849609 C37.24770178 51.4429164 36.01305287 52.18200198 34.78125 52.92578125 C32.14030385 54.51845711 29.47638037 56.07106978 26.8125 57.625 C25.84054688 58.19347656 24.86859375 58.76195312 23.8671875 59.34765625 C20.19000464 61.46679569 16.47471263 63.50642213 12.734375 65.51171875 C10.83238823 66.54694298 8.94788311 67.61467257 7.078125 68.70703125 C6.12421875 69.25746094 5.1703125 69.80789062 4.1875 70.375 C3.33542969 70.87773438 2.48335937 71.38046875 1.60546875 71.8984375 C-2.29256638 73.54648234 -5.10482787 73.75533023 -9.0949707 72.16503906 C-11.52488016 70.99388627 -13.88717275 69.73861838 -16.25 68.4375 C-17.09030762 67.98439453 -17.93061523 67.53128906 -18.79638672 67.06445312 C-34.86280428 58.27439144 -34.86280428 58.27439144 -37 54 C-37.13533755 51.34813075 -37.21264544 48.72375031 -37.23828125 46.0703125 C-37.246353 45.28357147 -37.25442474 44.49683044 -37.26274109 43.68624878 C-37.27657904 42.02018436 -37.2873025 40.35409161 -37.29516602 38.68798828 C-37.31238701 36.141706 -37.35627417 33.59671963 -37.40039062 31.05078125 C-37.41051702 29.43230122 -37.41903329 27.81381015 -37.42578125 26.1953125 C-37.44328934 25.4347757 -37.46079742 24.67423889 -37.47883606 23.89065552 C-37.46468846 20.43791165 -37.31761791 18.42217455 -35.21264648 15.62426758 C-33.23271686 14.17083364 -31.36016281 12.92459176 -29.171875 11.81640625 C-28.45386719 11.44580078 -27.73585938 11.07519531 -26.99609375 10.69335938 C-26.25488281 10.32017578 -25.51367188 9.94699219 -24.75 9.5625 C-19.58164148 6.93242058 -14.59172135 4.20780849 -9.73535156 1.03100586 C-6.11187835 -1.12176952 -3.94269575 -1.15733625 0 0 Z " fill="#FBFAFE" transform="translate(72,44)"/>
</svg>
